<?xml version="1.0" encoding="utf-8"?>
<svg width="21.25px" height="21.25px" viewBox="0 0 21.25 21.25" version="1.1" xmlns:xlink="http://www.w3.org/1999/xlink" xmlns="http://www.w3.org/2000/svg">
  <defs>
    <filter id="filter_1">
      <feColorMatrix in="SourceGraphic" type="matrix" values="0 0 0 0 1 0 0 0 0 1 0 0 0 0 1 0 0 0 1 0" />
    </filter>
  </defs>
  <g id="smileys-01" transform="translate(0.625 0.625)" filter="url(#filter_1)">
    <path d="M0 0L20 0L20 20L0 20L0 0Z" id="Path" fill="none" fill-rule="evenodd" stroke="none" />
    <path d="M10 2.5C5.86417 2.5 2.5 5.86417 2.5 10C2.5 14.1358 5.86417 17.5 10 17.5C14.1358 17.5 17.5 14.135 17.5 10C17.5 5.865 14.135 2.5 10 2.5Z" id="Path" fill="none" fill-rule="evenodd" stroke="#323232" stroke-width="1.25" stroke-linecap="round" stroke-linejoin="round" />
    <path d="M12.7733 7.91667C12.6583 7.91667 12.565 8.01 12.5658 8.125C12.5658 8.24 12.6592 8.33333 12.7742 8.33333C12.8892 8.33333 12.9825 8.24 12.9825 8.125C12.9825 8.01 12.8892 7.91667 12.7733 7.91667" id="Path" fill="none" fill-rule="evenodd" stroke="#323232" stroke-width="1.25" stroke-linecap="round" stroke-linejoin="round" />
    <path d="M7.19917 7.91667C7.08417 7.91667 6.99083 8.01 6.99167 8.125C6.99167 8.24 7.085 8.33333 7.2 8.33333C7.315 8.33333 7.40833 8.24 7.40833 8.125C7.40833 8.01 7.315 7.91667 7.19917 7.91667" id="Path" fill="none" fill-rule="evenodd" stroke="#323232" stroke-width="1.25" stroke-linecap="round" stroke-linejoin="round" />
    <path d="M12.9167 13.0733C12.9167 13.0733 11.8225 14.1667 10 14.1667C8.17667 14.1667 7.08333 13.0733 7.08333 13.0733" id="Path" fill="none" fill-rule="evenodd" stroke="#323232" stroke-width="1.25" stroke-linecap="round" stroke-linejoin="round" />
  </g>
</svg>