<?xml version="1.0" encoding="utf-8"?>
<svg width="24px" height="24px" viewBox="0 0 24 24" version="1.1" xmlns:xlink="http://www.w3.org/1999/xlink" xmlns="http://www.w3.org/2000/svg">
  <defs>
    <filter id="filter_1">
      <feColorMatrix in="SourceGraphic" type="matrix" values="0 0 0 0 1 0 0 0 0 1 0 0 0 0 1 0 0 0 1 0" />
    </filter>
  </defs>
  <g id="MonitorPlay" filter="url(#filter_1)">
    <path d="M0 0L24 0L24 24L0 24L0 0Z" id="Rectangle" fill="none" fill-rule="evenodd" stroke="none" />
    <path d="M15.75 21C15.75 21.4142 15.4142 21.75 15 21.75L9 21.75C8.58579 21.75 8.25 21.4142 8.25 21C8.25 20.5858 8.58579 20.25 9 20.25L15 20.25C15.4142 20.25 15.75 20.5858 15.75 21ZM21.75 6L21.75 16.5C21.7486 17.7421 20.7421 18.7486 19.5 18.75L4.5 18.75C3.25795 18.7486 2.25142 17.7421 2.25 16.5L2.25 6C2.25141 4.75795 3.25794 3.75141 4.5 3.75L19.5 3.75C20.7421 3.75141 21.7486 4.75795 21.75 6ZM15.375 11.25C15.375 10.9936 15.244 10.7549 15.0276 10.6173L10.9026 7.99226C10.6717 7.84529 10.379 7.83582 10.1391 7.96754C9.89913 8.09927 9.75 8.35126 9.75 8.625L9.75 13.875C9.75 14.1487 9.89913 14.4007 10.1391 14.5325C10.379 14.6642 10.6717 14.6547 10.9026 14.5077L15.0276 11.8827C15.244 11.7451 15.375 11.5064 15.375 11.25Z" id="Shape" fill="#FFFFFF" stroke="none" />
  </g>
</svg>