<?xml version="1.0" encoding="utf-8"?>
<svg width="25.5px" height="25.5px" viewBox="0 0 25.5 25.5" version="1.1" xmlns:xlink="http://www.w3.org/1999/xlink" xmlns="http://www.w3.org/2000/svg">
  <defs>
    <filter id="filter_1">
      <feColorMatrix in="SourceGraphic" type="matrix" values="0 0 0 0 0.5176471 0 0 0 0 0.53333336 0 0 0 0 0.54509807 0 0 0 1 0" />
    </filter>
  </defs>
  <g id="MonitorPlay" transform="translate(0.75 0.75)" filter="url(#filter_1)">
    <path d="M0 0L24 0L24 24L0 24L0 0Z" id="Rectangle" fill="none" fill-rule="evenodd" stroke="none" />
    <path d="M19.501 18L4.499 18Q4.42536 18 4.35207 17.9928Q4.27879 17.9856 4.20656 17.9712Q4.13433 17.9568 4.06386 17.9355Q3.99339 17.9141 3.92536 17.8859Q3.85732 17.8577 3.79238 17.823Q3.72743 17.7883 3.6662 17.7474Q3.60497 17.7065 3.54804 17.6597Q3.49112 17.613 3.43905 17.561Q3.38697 17.5089 3.34026 17.452Q3.29354 17.395 3.25263 17.3338Q3.21171 17.2726 3.177 17.2076Q3.14229 17.1427 3.1141 17.0746Q3.08592 17.0066 3.06455 16.9361Q3.04317 16.8657 3.0288 16.7934Q3.01444 16.7212 3.00722 16.6479Q3 16.5746 3 16.501L3 5.999Q3 5.92536 3.00722 5.85207Q3.01444 5.77878 3.0288 5.70656Q3.04317 5.63433 3.06455 5.56386Q3.08593 5.49339 3.11411 5.42535Q3.14229 5.35732 3.177 5.29237Q3.21172 5.22743 3.25263 5.1662Q3.29354 5.10497 3.34026 5.04804Q3.38698 4.99112 3.43905 4.93904Q3.49112 4.88697 3.54805 4.84026Q3.60497 4.79354 3.6662 4.75262Q3.72743 4.71171 3.79238 4.677Q3.85732 4.64228 3.92536 4.6141Q3.9934 4.58592 4.06387 4.56455Q4.13434 4.54317 4.20656 4.5288Q4.27879 4.51443 4.35208 4.50722Q4.42536 4.5 4.499 4.5L19.501 4.5Q19.5746 4.5 19.6479 4.50722Q19.7212 4.51444 19.7934 4.5288Q19.8657 4.54317 19.9361 4.56455Q20.0066 4.58592 20.0746 4.6141Q20.1427 4.64229 20.2076 4.677Q20.2726 4.71171 20.3338 4.75263Q20.395 4.79354 20.452 4.84026Q20.5089 4.88697 20.561 4.93905Q20.613 4.99112 20.6597 5.04804Q20.7065 5.10497 20.7474 5.1662Q20.7883 5.22743 20.823 5.29238Q20.8577 5.35732 20.8859 5.42536Q20.9141 5.49339 20.9355 5.56386Q20.9568 5.63433 20.9712 5.70656Q20.9856 5.77879 20.9928 5.85207Q21 5.92536 21 5.999L21 16.501Q21 16.5746 20.9928 16.6479Q20.9856 16.7212 20.9712 16.7934Q20.9568 16.8657 20.9355 16.9361Q20.9141 17.0066 20.8859 17.0746Q20.8577 17.1427 20.823 17.2076Q20.7883 17.2726 20.7474 17.3338Q20.7065 17.395 20.6597 17.452Q20.613 17.5089 20.561 17.561Q20.5089 17.613 20.452 17.6597Q20.395 17.7065 20.3338 17.7474Q20.2726 17.7883 20.2076 17.823Q20.1427 17.8577 20.0746 17.8859Q20.0066 17.9141 19.9361 17.9355Q19.8657 17.9568 19.7934 17.9712Q19.7212 17.9856 19.6479 17.9928Q19.5746 18 19.501 18Z" id="Rectangle" fill="none" fill-rule="evenodd" stroke="#FFFFFF" stroke-width="1.5" stroke-linecap="round" stroke-linejoin="round" />
    <path d="M15 21.0031L9 21.0031" id="Path" fill="none" fill-rule="evenodd" stroke="#FFFFFF" stroke-width="1.5" stroke-linecap="round" stroke-linejoin="round" />
  </g>
</svg>