<?xml version="1.0" encoding="utf-8"?>
<svg width="25.5px" height="25.5px" viewBox="0 0 25.5 25.5" version="1.1" xmlns:xlink="http://www.w3.org/1999/xlink" xmlns="http://www.w3.org/2000/svg">
  <defs>
    <filter id="filter_1">
      <feColorMatrix in="SourceGraphic" type="matrix" values="0 0 0 0 0.5176471 0 0 0 0 0.53333336 0 0 0 0 0.54509807 0 0 0 1 0" />
    </filter>
  </defs>
  <g id="question-notification-square" transform="translate(0.75 0.75)" filter="url(#filter_1)">
    <path d="M0 0L24 0L24 24L0 24L0 0Z" id="Rectangle" fill="none" fill-rule="evenodd" stroke="none" />
    <path d="M0 24L24 24L24 0L0 0L0 24Z" id="Path" fill="none" fill-rule="evenodd" stroke="none" />
    <path d="M14.4 10.1504C14.3216 8.8906 13.2412 7.93023 11.9809 8C10.8547 7.95325 9.85474 8.71449 9.6 9.81241" id="Path" fill="none" fill-rule="evenodd" stroke="#323232" stroke-width="1.5" stroke-linecap="round" stroke-linejoin="round" />
    <path d="M7.999 3L16.001 3Q16.1237 3 16.2463 3.00602Q16.3689 3.01204 16.491 3.02407Q16.6131 3.0361 16.7345 3.05411Q16.8559 3.07211 16.9763 3.09605Q17.0966 3.12 17.2157 3.14981Q17.3347 3.17963 17.4521 3.21526Q17.5696 3.25088 17.6851 3.29222Q17.8007 3.33356 17.914 3.38053Q18.0274 3.42749 18.1383 3.47996Q18.2493 3.53243 18.3575 3.59028Q18.4657 3.64812 18.571 3.71121Q18.6763 3.7743 18.7783 3.84248Q18.8803 3.91066 18.9789 3.98377Q19.0775 4.05687 19.1723 4.13472Q19.2672 4.21257 19.3581 4.29499Q19.4491 4.3774 19.5358 4.46417Q19.6226 4.55095 19.705 4.64188Q19.7874 4.7328 19.8653 4.82767Q19.9431 4.92253 20.0162 5.0211Q20.0893 5.11967 20.1575 5.2217Q20.2257 5.32374 20.2888 5.429Q20.3519 5.53426 20.4097 5.64249Q20.4676 5.75072 20.52 5.86165Q20.5725 5.97259 20.6195 6.08597Q20.6664 6.19934 20.7078 6.31489Q20.7491 6.43043 20.7847 6.54787Q20.8204 6.6653 20.8502 6.78434Q20.88 6.90338 20.9039 7.02374Q20.9279 7.1441 20.9459 7.26549Q20.9639 7.38688 20.9759 7.50901Q20.988 7.63114 20.994 7.75371Q21 7.87628 21 7.999L21 16.001Q21 16.1237 20.994 16.2463Q20.988 16.3689 20.9759 16.491Q20.9639 16.6131 20.9459 16.7345Q20.9279 16.8559 20.9039 16.9763Q20.88 17.0966 20.8502 17.2157Q20.8204 17.3347 20.7847 17.4521Q20.7491 17.5696 20.7078 17.6851Q20.6664 17.8007 20.6195 17.914Q20.5725 18.0274 20.52 18.1383Q20.4676 18.2493 20.4097 18.3575Q20.3519 18.4657 20.2888 18.571Q20.2257 18.6763 20.1575 18.7783Q20.0893 18.8803 20.0162 18.9789Q19.9431 19.0775 19.8653 19.1723Q19.7874 19.2672 19.705 19.3581Q19.6226 19.4491 19.5358 19.5358Q19.4491 19.6226 19.3581 19.705Q19.2672 19.7874 19.1723 19.8653Q19.0775 19.9431 18.9789 20.0162Q18.8803 20.0893 18.7783 20.1575Q18.6763 20.2257 18.571 20.2888Q18.4657 20.3519 18.3575 20.4097Q18.2493 20.4676 18.1383 20.52Q18.0274 20.5725 17.914 20.6195Q17.8007 20.6664 17.6851 20.7078Q17.5696 20.7491 17.4521 20.7847Q17.3347 20.8204 17.2157 20.8502Q17.0966 20.88 16.9763 20.9039Q16.8559 20.9279 16.7345 20.9459Q16.6131 20.9639 16.491 20.9759Q16.3689 20.988 16.2463 20.994Q16.1237 21 16.001 21L7.999 21Q7.87628 21 7.75371 20.994Q7.63114 20.988 7.50901 20.9759Q7.38688 20.9639 7.26549 20.9459Q7.1441 20.9279 7.02374 20.9039Q6.90338 20.88 6.78434 20.8502Q6.6653 20.8204 6.54787 20.7847Q6.43043 20.7491 6.31489 20.7078Q6.19934 20.6664 6.08596 20.6195Q5.97259 20.5725 5.86165 20.52Q5.75071 20.4676 5.64249 20.4097Q5.53426 20.3519 5.429 20.2888Q5.32374 20.2257 5.2217 20.1575Q5.11967 20.0893 5.0211 20.0162Q4.92253 19.9431 4.82767 19.8653Q4.7328 19.7874 4.64188 19.705Q4.55095 19.6226 4.46417 19.5358Q4.3774 19.4491 4.29499 19.3581Q4.21257 19.2672 4.13472 19.1723Q4.05687 19.0775 3.98377 18.9789Q3.91066 18.8803 3.84248 18.7783Q3.7743 18.6763 3.71121 18.571Q3.64812 18.4657 3.59028 18.3575Q3.53243 18.2493 3.47996 18.1383Q3.42749 18.0274 3.38053 17.914Q3.33356 17.8007 3.29222 17.6851Q3.25088 17.5696 3.21526 17.4521Q3.17963 17.3347 3.14981 17.2157Q3.12 17.0966 3.09605 16.9763Q3.07211 16.8559 3.05411 16.7345Q3.0361 16.6131 3.02407 16.491Q3.01204 16.3689 3.00602 16.2463Q3 16.1237 3 16.001L3 7.999Q3 7.87628 3.00602 7.75371Q3.01204 7.63114 3.02407 7.50901Q3.0361 7.38688 3.05411 7.26549Q3.07211 7.1441 3.09605 7.02374Q3.12 6.90338 3.14981 6.78434Q3.17963 6.6653 3.21526 6.54787Q3.25088 6.43043 3.29222 6.31489Q3.33356 6.19934 3.38053 6.08596Q3.42749 5.97259 3.47996 5.86165Q3.53243 5.75071 3.59028 5.64249Q3.64812 5.53426 3.71121 5.429Q3.7743 5.32374 3.84248 5.2217Q3.91066 5.11967 3.98377 5.0211Q4.05687 4.92253 4.13472 4.82767Q4.21257 4.7328 4.29499 4.64188Q4.3774 4.55095 4.46417 4.46417Q4.55095 4.3774 4.64188 4.29499Q4.7328 4.21257 4.82767 4.13472Q4.92253 4.05687 5.0211 3.98377Q5.11967 3.91066 5.2217 3.84248Q5.32374 3.7743 5.429 3.71121Q5.53426 3.64812 5.64249 3.59028Q5.75072 3.53243 5.86165 3.47996Q5.97259 3.42749 6.08597 3.38053Q6.19934 3.33356 6.31489 3.29222Q6.43043 3.25088 6.54787 3.21526Q6.6653 3.17963 6.78434 3.14981Q6.90338 3.12 7.02374 3.09605Q7.1441 3.07211 7.26549 3.05411Q7.38688 3.0361 7.50901 3.02407Q7.63114 3.01204 7.75371 3.00602Q7.87628 3 7.999 3L7.999 3Z" id="Rectangle" fill="none" fill-rule="evenodd" stroke="#979797" stroke-width="1.5" />
    <path d="M14.4 10.1504L14.4 10.1504C14.4 10.9079 13.9893 11.6058 13.3272 11.9737L12 12.7111" id="Path" fill="none" fill-rule="evenodd" stroke="#323232" stroke-width="1.5" stroke-linecap="round" stroke-linejoin="round" />
    <path d="M12.1001 15.9001C12.1001 15.9553 12.0553 16 12.0001 16C11.9449 16 11.9002 15.9552 11.9001 15.9C11.9001 15.8449 11.9448 15.8001 12 15.8C12.0266 15.8 12.0521 15.8105 12.0708 15.8293C12.0896 15.8481 12.1002 15.8736 12.1001 15.9001" id="Path" fill="none" fill-rule="evenodd" stroke="#323232" stroke-width="1.5" stroke-linecap="round" stroke-linejoin="round" />
  </g>
</svg>