<?xml version="1.0" encoding="utf-8"?>
<svg width="25.5px" height="25.5px" viewBox="0 0 25.5 25.5" version="1.1" xmlns:xlink="http://www.w3.org/1999/xlink" xmlns="http://www.w3.org/2000/svg">
  <defs>
    <filter id="filter_1">
      <feColorMatrix in="SourceGraphic" type="matrix" values="0 0 0 0 0.5176471 0 0 0 0 0.53333336 0 0 0 0 0.54509807 0 0 0 1 0" />
    </filter>
  </defs>
  <g id="Cookie" transform="translate(0.75 0.75)" filter="url(#filter_1)">
    <path d="M0 0L24 0L24 24L0 24L0 0Z" id="Rectangle" fill="none" fill-rule="evenodd" stroke="none" />
    <path d="M20.9995 11.9448C21.0175 14.3542 20.0657 16.6696 18.3582 18.3697C14.8946 21.8272 9.2358 21.8661 5.72735 18.454C3.09303 15.8939 2.27904 11.9897 3.67081 8.59021C5.06259 5.19069 8.38076 2.97824 12.0541 3.00052C12.2818 3.00098 12.4971 3.10474 12.6393 3.28264C12.7816 3.46053 12.8354 3.69335 12.7858 3.91563C12.5865 4.79913 12.7971 5.72538 13.3588 6.43584C13.9206 7.1463 14.7732 7.56489 15.6789 7.57479C16.0896 7.5782 16.4218 7.91035 16.4252 8.32112C16.4351 9.22675 16.8537 10.0794 17.5641 10.6411C18.2746 11.2029 19.2008 11.4135 20.0843 11.2142C20.3064 11.1645 20.5391 11.2182 20.717 11.3602C20.8949 11.5022 20.9988 11.7172 20.9995 11.9448L20.9995 11.9448Z" id="Path" fill="none" fill-rule="evenodd" stroke="#FFFFFF" stroke-width="1.5" stroke-linecap="round" stroke-linejoin="round" />
    <path d="M14.625 17.25C15.2463 17.25 15.75 16.7463 15.75 16.125C15.75 15.5037 15.2463 15 14.625 15C14.0037 15 13.5 15.5037 13.5 16.125C13.5 16.7463 14.0037 17.25 14.625 17.25Z" id="Oval" fill="#FFFFFF" stroke="none" />
    <path d="M8.625 16.5C9.24632 16.5 9.75 15.9963 9.75 15.375C9.75 14.7537 9.24632 14.25 8.625 14.25C8.00368 14.25 7.5 14.7537 7.5 15.375C7.5 15.9963 8.00368 16.5 8.625 16.5Z" id="Oval" fill="#FFFFFF" stroke="none" />
    <path d="M7.875 11.25C8.49632 11.25 9 10.7463 9 10.125C9 9.50368 8.49632 9 7.875 9C7.25368 9 6.75 9.50368 6.75 10.125C6.75 10.7463 7.25368 11.25 7.875 11.25Z" id="Oval" fill="#FFFFFF" stroke="none" />
    <path d="M12.75 12.75C13.3713 12.75 13.875 12.2463 13.875 11.625C13.875 11.0037 13.3713 10.5 12.75 10.5C12.1287 10.5 11.625 11.0037 11.625 11.625C11.625 12.2463 12.1287 12.75 12.75 12.75Z" id="Oval" fill="#FFFFFF" stroke="none" />
  </g>
</svg>