<?xml version="1.0" encoding="utf-8"?>
<svg width="29px" height="20px" viewBox="0 0 29 20" version="1.1" xmlns:xlink="http://www.w3.org/1999/xlink" xmlns="http://www.w3.org/2000/svg">
  <g id="Group">
    <path d="M5.999 0L23.001 0Q23.1483 0 23.2954 0.00722606Q23.4424 0.0144521 23.589 0.0288868Q23.7356 0.0433215 23.8812 0.0649301Q24.0269 0.0865387 24.1713 0.115269Q24.3158 0.143999 24.4586 0.179782Q24.6015 0.215565 24.7424 0.258315Q24.8833 0.301064 25.022 0.350677Q25.1607 0.40029 25.2967 0.456647Q25.4328 0.513003 25.5659 0.575968Q25.699 0.638933 25.8289 0.708354Q25.9588 0.777776 26.0851 0.853486Q26.2114 0.929196 26.3339 1.01101Q26.4563 1.09283 26.5746 1.18056Q26.6929 1.26828 26.8067 1.36171Q26.9206 1.45514 27.0297 1.55403Q27.1388 1.65293 27.2429 1.75707Q27.3471 1.8612 27.446 1.97032Q27.5449 2.07944 27.6383 2.19327Q27.7317 2.30711 27.8194 2.4254Q27.9072 2.54369 27.989 2.66613Q28.0708 2.78858 28.1465 2.9149Q28.2222 3.04121 28.2916 3.17109Q28.3611 3.30097 28.424 3.4341Q28.487 3.56722 28.5434 3.70328Q28.5997 3.83934 28.6493 3.978Q28.6989 4.11666 28.7417 4.25758Q28.7844 4.39851 28.8202 4.54136Q28.856 4.68422 28.8847 4.82865Q28.9135 4.97309 28.9351 5.11876Q28.9567 5.26444 28.9711 5.411Q28.9855 5.55755 28.9928 5.70464Q29 5.85173 29 5.999L29 14.001Q29 14.1483 28.9928 14.2954Q28.9855 14.4424 28.9711 14.589Q28.9567 14.7356 28.9351 14.8812Q28.9135 15.0269 28.8847 15.1713Q28.856 15.3158 28.8202 15.4586Q28.7844 15.6015 28.7417 15.7424Q28.6989 15.8833 28.6493 16.022Q28.5997 16.1607 28.5434 16.2967Q28.487 16.4328 28.424 16.5659Q28.3611 16.699 28.2916 16.8289Q28.2222 16.9588 28.1465 17.0851Q28.0708 17.2114 27.989 17.3339Q27.9072 17.4563 27.8194 17.5746Q27.7317 17.6929 27.6383 17.8067Q27.5449 17.9206 27.446 18.0297Q27.3471 18.1388 27.2429 18.2429Q27.1388 18.3471 27.0297 18.446Q26.9206 18.5449 26.8067 18.6383Q26.6929 18.7317 26.5746 18.8194Q26.4563 18.9072 26.3339 18.989Q26.2114 19.0708 26.0851 19.1465Q25.9588 19.2222 25.8289 19.2916Q25.699 19.3611 25.5659 19.424Q25.4328 19.487 25.2967 19.5433Q25.1607 19.5997 25.022 19.6493Q24.8833 19.6989 24.7424 19.7417Q24.6015 19.7844 24.4586 19.8202Q24.3158 19.856 24.1713 19.8847Q24.0269 19.9135 23.8812 19.9351Q23.7356 19.9567 23.589 19.9711Q23.4424 19.9855 23.2954 19.9928Q23.1483 20 23.001 20L5.999 20Q5.85173 20 5.70464 19.9928Q5.55755 19.9855 5.411 19.9711Q5.26444 19.9567 5.11876 19.9351Q4.97309 19.9135 4.82865 19.8847Q4.68422 19.856 4.54136 19.8202Q4.39851 19.7844 4.25758 19.7417Q4.11666 19.6989 3.978 19.6493Q3.83934 19.5997 3.70328 19.5433Q3.56722 19.487 3.4341 19.424Q3.30097 19.3611 3.17109 19.2916Q3.04121 19.2222 2.9149 19.1465Q2.78858 19.0708 2.66613 18.989Q2.54369 18.9072 2.4254 18.8194Q2.30711 18.7317 2.19327 18.6383Q2.07944 18.5449 1.97032 18.446Q1.8612 18.3471 1.75707 18.2429Q1.65293 18.1388 1.55403 18.0297Q1.45514 17.9206 1.36171 17.8067Q1.26829 17.6929 1.18056 17.5746Q1.09283 17.4563 1.01101 17.3339Q0.929196 17.2114 0.853486 17.0851Q0.777776 16.9588 0.708354 16.8289Q0.638933 16.699 0.575968 16.5659Q0.513003 16.4328 0.456647 16.2967Q0.40029 16.1607 0.350677 16.022Q0.301064 15.8833 0.258315 15.7424Q0.215565 15.6015 0.179782 15.4586Q0.143999 15.3158 0.115269 15.1713Q0.0865387 15.0269 0.0649301 14.8812Q0.0433215 14.7356 0.0288868 14.589Q0.0144521 14.4424 0.00722606 14.2954Q0 14.1483 0 14.001L0 5.999Q0 5.85173 0.00722606 5.70464Q0.0144521 5.55755 0.0288868 5.411Q0.0433215 5.26444 0.0649301 5.11876Q0.0865387 4.97309 0.115269 4.82865Q0.143999 4.68422 0.179782 4.54136Q0.215565 4.39851 0.258315 4.25758Q0.301064 4.11666 0.350677 3.978Q0.40029 3.83934 0.456647 3.70328Q0.513003 3.56722 0.575968 3.4341Q0.638933 3.30097 0.708354 3.17109Q0.777776 3.04121 0.853486 2.9149Q0.929196 2.78858 1.01101 2.66613Q1.09283 2.54369 1.18056 2.4254Q1.26828 2.30711 1.36171 2.19327Q1.45514 2.07944 1.55403 1.97032Q1.65293 1.8612 1.75707 1.75707Q1.8612 1.65293 1.97032 1.55403Q2.07944 1.45514 2.19327 1.36171Q2.30711 1.26829 2.4254 1.18056Q2.54369 1.09283 2.66613 1.01101Q2.78858 0.929196 2.9149 0.853486Q3.04121 0.777776 3.17109 0.708354Q3.30097 0.638933 3.4341 0.575968Q3.56722 0.513003 3.70328 0.456647Q3.83934 0.40029 3.978 0.350677Q4.11666 0.301064 4.25758 0.258315Q4.39851 0.215565 4.54136 0.179782Q4.68422 0.143999 4.82865 0.115269Q4.97309 0.0865387 5.11876 0.0649301Q5.26444 0.0433215 5.411 0.0288868Q5.55755 0.0144521 5.70464 0.00722606Q5.85173 0 5.999 0Z" id="Rectangle-Copy-11" fill="#00C7BE" fill-rule="evenodd" stroke="none" />
    <g id="ON" transform="translate(6 6)">
      <path d="M2.05969 4C2.05969 4.30151 2.11663 4.57956 2.2305 4.83417C2.34437 5.08878 2.49842 5.30988 2.69267 5.49749C2.88692 5.68509 3.11298 5.83082 3.37086 5.93467C3.62874 6.03853 3.90169 6.09045 4.18972 6.09045C4.47774 6.09045 4.75069 6.03853 5.00857 5.93467C5.26645 5.83082 5.49419 5.68509 5.69178 5.49749C5.88938 5.30988 6.04511 5.08878 6.15898 4.83417C6.27285 4.57956 6.32979 4.30151 6.32979 4C6.32979 3.69849 6.27285 3.42044 6.15898 3.16583C6.04511 2.91122 5.88938 2.69012 5.69178 2.50251C5.49419 2.31491 5.26645 2.16918 5.00857 2.06533C4.75069 1.96147 4.47774 1.90955 4.18972 1.90955C3.90169 1.90955 3.62874 1.96147 3.37086 2.06533C3.11298 2.16918 2.88692 2.31491 2.69267 2.50251C2.49842 2.69012 2.34437 2.91122 2.2305 3.16583C2.11663 3.42044 2.05969 3.69849 2.05969 4ZM0 4C0 3.43719 0.103822 2.9129 0.311466 2.42714C0.51911 1.94137 0.807132 1.51759 1.17553 1.15578C1.54393 0.79397 1.98434 0.510888 2.49675 0.306533C3.00916 0.102178 3.57348 0 4.18972 0C4.79925 0 5.3619 0.102178 5.87766 0.306533C6.39342 0.510888 6.83717 0.79397 7.20892 1.15578C7.58067 1.51759 7.87037 1.94137 8.07801 2.42714C8.28566 2.9129 8.38948 3.43719 8.38948 4C8.38948 4.56281 8.28566 5.0871 8.07801 5.57286C7.87037 6.05863 7.58067 6.48241 7.20892 6.84422C6.83717 7.20603 6.39342 7.48911 5.87766 7.69347C5.3619 7.89782 4.79925 8 4.18972 8C3.57348 8 3.00916 7.89782 2.49675 7.69347C1.98434 7.48911 1.54393 7.20603 1.17553 6.84422C0.807132 6.48241 0.51911 6.05863 0.311466 5.57286C0.103822 5.0871 0 4.56281 0 4Z" id="Shape" fill="#FFFFFF" stroke="none" />
      <path d="M9.43439 7.78895L9.43439 0.21106L11.4037 0.21106L15.0408 4.84423L15.0408 0.21106L17 0.21106L17 7.78895L15.0408 7.78895L11.4037 3.15578L11.4037 7.78895L9.43439 7.78895Z" id="Path" fill="#FFFFFF" stroke="none" />
    </g>
  </g>
</svg>