<?xml version="1.0" encoding="utf-8"?>
<svg width="62px" height="62px" viewBox="0 0 62 62" version="1.1" xmlns:xlink="http://www.w3.org/1999/xlink" xmlns="http://www.w3.org/2000/svg">
  <defs>
    <filter filterUnits="userSpaceOnUse" color-interpolation-filters="sRGB" id="filter_1">
      <feFlood flood-opacity="0" result="BackgroundImageFix" />
      <feBlend mode="normal" in="SourceGraphic" in2="BackgroundImageFix" result="shape" />
      <feGaussianBlur stdDeviation="5" result="effect0_gaussianBlur" />
    </filter>
    <path d="M7.999 0L24.001 0Q24.1974 0 24.3935 0.00963514Q24.5896 0.0192703 24.785 0.0385174Q24.9805 0.0577644 25.1747 0.0865771Q25.3689 0.11539 25.5615 0.153699Q25.7541 0.192007 25.9446 0.23972Q26.1351 0.287433 26.323 0.344434Q26.5109 0.401436 26.6958 0.467589Q26.8807 0.533742 27.0621 0.608888Q27.2435 0.684033 27.421 0.76799Q27.5985 0.851946 27.7717 0.944512Q27.9449 1.03708 28.1133 1.13803Q28.2817 1.23898 28.445 1.34807Q28.6083 1.45717 28.766 1.57414Q28.9237 1.69112 29.0755 1.81569Q29.2273 1.94026 29.3728 2.07213Q29.5183 2.204 29.6571 2.34285Q29.796 2.4817 29.9279 2.6272Q30.0597 2.7727 30.1843 2.92449Q30.3089 3.07628 30.4259 3.234Q30.5428 3.39172 30.6519 3.55499Q30.761 3.71826 30.862 3.88669Q30.9629 4.05512 31.0555 4.2283Q31.148 4.40148 31.232 4.57899Q31.316 4.7565 31.3911 4.93791Q31.4663 5.11933 31.5324 5.30422Q31.5986 5.4891 31.6556 5.67701Q31.7126 5.86492 31.7603 6.0554Q31.808 6.24588 31.8463 6.43847Q31.8846 6.63106 31.9134 6.8253Q31.9422 7.01954 31.9615 7.21496Q31.9807 7.41038 31.9904 7.60651Q32 7.80264 32 7.999L32 24.001Q32 24.1974 31.9904 24.3935Q31.9807 24.5896 31.9615 24.785Q31.9422 24.9805 31.9134 25.1747Q31.8846 25.3689 31.8463 25.5615Q31.808 25.7541 31.7603 25.9446Q31.7126 26.1351 31.6556 26.323Q31.5986 26.5109 31.5324 26.6958Q31.4663 26.8807 31.3911 27.0621Q31.316 27.2435 31.232 27.421Q31.1481 27.5985 31.0555 27.7717Q30.9629 27.9449 30.862 28.1133Q30.761 28.2817 30.6519 28.445Q30.5428 28.6083 30.4259 28.766Q30.3089 28.9237 30.1843 29.0755Q30.0597 29.2273 29.9279 29.3728Q29.796 29.5183 29.6571 29.6571Q29.5183 29.796 29.3728 29.9279Q29.2273 30.0597 29.0755 30.1843Q28.9237 30.3089 28.766 30.4259Q28.6083 30.5428 28.445 30.6519Q28.2817 30.761 28.1133 30.862Q27.9449 30.9629 27.7717 31.0555Q27.5985 31.148 27.421 31.232Q27.2435 31.316 27.0621 31.3911Q26.8807 31.4663 26.6958 31.5324Q26.5109 31.5986 26.323 31.6556Q26.1351 31.7126 25.9446 31.7603Q25.7541 31.808 25.5615 31.8463Q25.3689 31.8846 25.1747 31.9134Q24.9805 31.9422 24.785 31.9615Q24.5896 31.9807 24.3935 31.9904Q24.1974 32 24.001 32L7.999 32Q7.80264 32 7.60651 31.9904Q7.41038 31.9807 7.21496 31.9615Q7.01954 31.9422 6.8253 31.9134Q6.63106 31.8846 6.43847 31.8463Q6.24588 31.808 6.0554 31.7603Q5.86492 31.7126 5.67701 31.6556Q5.4891 31.5986 5.30422 31.5324Q5.11933 31.4663 4.93791 31.3911Q4.7565 31.316 4.57899 31.232Q4.40148 31.1481 4.2283 31.0555Q4.05512 30.9629 3.88669 30.862Q3.71826 30.761 3.55499 30.6519Q3.39172 30.5428 3.234 30.4259Q3.07628 30.3089 2.92449 30.1843Q2.7727 30.0597 2.6272 29.9279Q2.4817 29.796 2.34285 29.6571Q2.204 29.5183 2.07213 29.3728Q1.94026 29.2273 1.81569 29.0755Q1.69112 28.9237 1.57414 28.766Q1.45717 28.6083 1.34807 28.445Q1.23898 28.2817 1.13803 28.1133Q1.03708 27.9449 0.944512 27.7717Q0.851946 27.5985 0.76799 27.421Q0.684033 27.2435 0.608888 27.0621Q0.533742 26.8807 0.467589 26.6958Q0.401436 26.5109 0.344434 26.323Q0.287433 26.1351 0.23972 25.9446Q0.192007 25.7541 0.153699 25.5615Q0.11539 25.3689 0.0865771 25.1747Q0.0577644 24.9805 0.0385174 24.785Q0.0192703 24.5896 0.00963514 24.3935Q0 24.1974 0 24.001L0 7.999Q0 7.80264 0.00963514 7.60651Q0.0192703 7.41038 0.0385174 7.21496Q0.0577644 7.01954 0.0865771 6.8253Q0.11539 6.63106 0.153699 6.43847Q0.192007 6.24588 0.23972 6.0554Q0.287433 5.86492 0.344434 5.67701Q0.401436 5.4891 0.467589 5.30422Q0.533742 5.11933 0.608888 4.93791Q0.684033 4.7565 0.76799 4.57899Q0.851946 4.40148 0.944512 4.2283Q1.03708 4.05512 1.13803 3.88669Q1.23898 3.71826 1.34807 3.55499Q1.45717 3.39172 1.57414 3.234Q1.69112 3.07628 1.81569 2.92449Q1.94026 2.7727 2.07213 2.6272Q2.204 2.4817 2.34285 2.34285Q2.4817 2.204 2.6272 2.07213Q2.7727 1.94026 2.92449 1.81569Q3.07628 1.69112 3.234 1.57414Q3.39172 1.45717 3.55499 1.34807Q3.71826 1.23898 3.88669 1.13803Q4.05512 1.03708 4.2283 0.944512Q4.40148 0.851946 4.57899 0.76799Q4.7565 0.684033 4.93791 0.608888Q5.11933 0.533742 5.30422 0.467589Q5.4891 0.401436 5.67701 0.344434Q5.86492 0.287433 6.0554 0.23972Q6.24588 0.192007 6.43847 0.153699Q6.63106 0.11539 6.8253 0.0865771Q7.01954 0.0577644 7.21496 0.0385174Q7.41038 0.0192703 7.60651 0.00963514Q7.80264 0 7.999 0L7.999 0Z" id="path_1" />
    <clipPath id="mask_1">
      <use xlink:href="#path_1" />
    </clipPath>
  </defs>
  <g id="full-screen-zoom-square" transform="translate(15 15)">
    <path d="M16.6667 11.3333L20.6667 11.3333L20.6667 15.3333" id="Path" fill="none" fill-rule="evenodd" stroke="#FFFFFF" stroke-width="2" stroke-linecap="round" stroke-linejoin="round" />
    <path d="M15.3333 20.6667L11.3333 20.6667L11.3333 16.6667" id="Path" fill="none" fill-rule="evenodd" stroke="#FFFFFF" stroke-width="2" stroke-linecap="round" stroke-linejoin="round" />
  </g>
  <use xlink:href="#full-screen-zoom-square" filter="url(#filter_1)" clip-path="url(#mask_1)" />
</svg>