<?xml version="1.0" encoding="utf-8"?>
<svg width="25.5px" height="25.5px" viewBox="0 0 25.5 25.5" version="1.1" xmlns:xlink="http://www.w3.org/1999/xlink" xmlns="http://www.w3.org/2000/svg">
  <defs>
    <filter id="filter_1">
      <feColorMatrix in="SourceGraphic" type="matrix" values="0 0 0 0 0.5176471 0 0 0 0 0.53333336 0 0 0 0 0.54509807 0 0 0 1 0" />
    </filter>
  </defs>
  <g id="sign-question" transform="translate(0.75 0.75)" filter="url(#filter_1)">
    <path d="M4.51335 8.46517L8.46517 4.51336Q8.55194 4.42658 8.64287 4.34417Q8.7338 4.26176 8.82866 4.18391Q8.92353 4.10605 9.02209 4.03295Q9.12066 3.95985 9.2227 3.89167Q9.32474 3.82349 9.43 3.7604Q9.53525 3.69731 9.64348 3.63946Q9.75171 3.58161 9.86265 3.52914Q9.97358 3.47667 10.087 3.42971Q10.2003 3.38275 10.3159 3.34141Q10.4314 3.30006 10.5489 3.26444Q10.6663 3.22882 10.7853 3.199Q10.9044 3.16918 11.0247 3.14524Q11.1451 3.1213 11.2665 3.10329Q11.3879 3.08529 11.51 3.07326Q11.6321 3.06123 11.7547 3.05521Q11.8773 3.04919 12 3.04919Q12.1227 3.04919 12.2453 3.05521Q12.3679 3.06123 12.49 3.07326Q12.6121 3.08529 12.7335 3.10329Q12.8549 3.1213 12.9752 3.14524Q13.0956 3.16918 13.2147 3.199Q13.3337 3.22882 13.4511 3.26444Q13.5686 3.30006 13.6841 3.34141Q13.7997 3.38275 13.913 3.42971Q14.0264 3.47667 14.1373 3.52914Q14.2483 3.58161 14.3565 3.63946Q14.4647 3.69731 14.57 3.7604Q14.6753 3.82349 14.7773 3.89167Q14.8793 3.95985 14.9779 4.03295Q15.0765 4.10605 15.1713 4.18391Q15.2662 4.26176 15.3571 4.34417Q15.448 4.42658 15.5348 4.51336L19.4866 8.46517Q19.5734 8.55195 19.6558 8.64288Q19.7382 8.7338 19.8161 8.82867Q19.8939 8.92353 19.967 9.0221Q20.0401 9.12067 20.1083 9.2227Q20.1765 9.32474 20.2396 9.43Q20.3027 9.53526 20.3605 9.64349Q20.4184 9.75171 20.4708 9.86265Q20.5233 9.97359 20.5703 10.087Q20.6172 10.2003 20.6586 10.3159Q20.6999 10.4314 20.7356 10.5489Q20.7712 10.6663 20.801 10.7853Q20.8308 10.9044 20.8548 11.0247Q20.8787 11.1451 20.8967 11.2665Q20.9147 11.3879 20.9267 11.51Q20.9388 11.6321 20.9448 11.7547Q20.9508 11.8773 20.9508 12Q20.9508 12.1227 20.9448 12.2453Q20.9388 12.3679 20.9267 12.49Q20.9147 12.6121 20.8967 12.7335Q20.8787 12.8549 20.8548 12.9753Q20.8308 13.0956 20.801 13.2147Q20.7712 13.3337 20.7356 13.4511Q20.6999 13.5686 20.6586 13.6841Q20.6172 13.7997 20.5703 13.913Q20.5233 14.0264 20.4708 14.1373Q20.4184 14.2483 20.3605 14.3565Q20.3027 14.4647 20.2396 14.57Q20.1765 14.6753 20.1083 14.7773Q20.0401 14.8793 19.967 14.9779Q19.8939 15.0765 19.8161 15.1713Q19.7382 15.2662 19.6558 15.3571Q19.5734 15.4481 19.4866 15.5348L15.5348 19.4866Q15.448 19.5734 15.3571 19.6558Q15.2662 19.7382 15.1713 19.8161Q15.0765 19.8939 14.9779 19.967Q14.8793 20.0401 14.7773 20.1083Q14.6753 20.1765 14.57 20.2396Q14.4647 20.3027 14.3565 20.3605Q14.2483 20.4184 14.1373 20.4709Q14.0264 20.5233 13.913 20.5703Q13.7997 20.6172 13.6841 20.6586Q13.5686 20.6999 13.4511 20.7356Q13.3337 20.7712 13.2147 20.801Q13.0956 20.8308 12.9752 20.8548Q12.8549 20.8787 12.7335 20.8967Q12.6121 20.9147 12.49 20.9267Q12.3679 20.9388 12.2453 20.9448Q12.1227 20.9508 12 20.9508Q11.8773 20.9508 11.7547 20.9448Q11.6321 20.9388 11.51 20.9267Q11.3879 20.9147 11.2665 20.8967Q11.1451 20.8787 11.0247 20.8548Q10.9044 20.8308 10.7853 20.801Q10.6663 20.7712 10.5489 20.7356Q10.4314 20.6999 10.3159 20.6586Q10.2003 20.6172 10.087 20.5703Q9.97358 20.5233 9.86265 20.4709Q9.75171 20.4184 9.64348 20.3605Q9.53525 20.3027 9.43 20.2396Q9.32474 20.1765 9.2227 20.1083Q9.12066 20.0401 9.02209 19.967Q8.92353 19.8939 8.82866 19.8161Q8.7338 19.7382 8.64287 19.6558Q8.55194 19.5734 8.46517 19.4866L4.51335 15.5348Q4.42658 15.4481 4.34417 15.3571Q4.26175 15.2662 4.1839 15.1713Q4.10605 15.0765 4.03295 14.9779Q3.95984 14.8793 3.89166 14.7773Q3.82349 14.6753 3.7604 14.57Q3.69731 14.4647 3.63946 14.3565Q3.58161 14.2483 3.52914 14.1373Q3.47667 14.0264 3.42971 13.913Q3.38274 13.7997 3.3414 13.6841Q3.30006 13.5686 3.26444 13.4511Q3.22881 13.3337 3.19899 13.2147Q3.16918 13.0956 3.14524 12.9753Q3.12129 12.8549 3.10329 12.7335Q3.08528 12.6121 3.07325 12.49Q3.06122 12.3679 3.0552 12.2453Q3.04918 12.1227 3.04918 12Q3.04918 11.8773 3.0552 11.7547Q3.06122 11.6321 3.07325 11.51Q3.08528 11.3879 3.10329 11.2665Q3.12129 11.1451 3.14524 11.0247Q3.16918 10.9044 3.19899 10.7853Q3.22881 10.6663 3.26444 10.5489Q3.30006 10.4314 3.3414 10.3159Q3.38274 10.2003 3.42971 10.087Q3.47667 9.97359 3.52914 9.86265Q3.58161 9.75171 3.63946 9.64349Q3.69731 9.53526 3.7604 9.43Q3.82349 9.32474 3.89166 9.2227Q3.95984 9.12067 4.03295 9.0221Q4.10605 8.92353 4.1839 8.82867Q4.26175 8.73381 4.34417 8.64288Q4.42658 8.55195 4.51335 8.46517Z" id="Rectangle" fill="none" fill-rule="evenodd" stroke="#323232" stroke-width="1.5" stroke-linecap="round" stroke-linejoin="round" />
    <path d="M4.51335 8.46517L8.46517 4.51336Q8.55194 4.42658 8.64287 4.34417Q8.7338 4.26176 8.82866 4.18391Q8.92353 4.10605 9.02209 4.03295Q9.12066 3.95985 9.2227 3.89167Q9.32474 3.82349 9.43 3.7604Q9.53525 3.69731 9.64348 3.63946Q9.75171 3.58161 9.86265 3.52914Q9.97358 3.47667 10.087 3.42971Q10.2003 3.38275 10.3159 3.34141Q10.4314 3.30006 10.5489 3.26444Q10.6663 3.22882 10.7853 3.199Q10.9044 3.16918 11.0247 3.14524Q11.1451 3.1213 11.2665 3.10329Q11.3879 3.08529 11.51 3.07326Q11.6321 3.06123 11.7547 3.05521Q11.8773 3.04919 12 3.04919Q12.1227 3.04919 12.2453 3.05521Q12.3679 3.06123 12.49 3.07326Q12.6121 3.08529 12.7335 3.10329Q12.8549 3.1213 12.9752 3.14524Q13.0956 3.16918 13.2147 3.199Q13.3337 3.22882 13.4511 3.26444Q13.5686 3.30006 13.6841 3.34141Q13.7997 3.38275 13.913 3.42971Q14.0264 3.47667 14.1373 3.52914Q14.2483 3.58161 14.3565 3.63946Q14.4647 3.69731 14.57 3.7604Q14.6753 3.82349 14.7773 3.89167Q14.8793 3.95985 14.9779 4.03295Q15.0765 4.10605 15.1713 4.18391Q15.2662 4.26176 15.3571 4.34417Q15.448 4.42658 15.5348 4.51336L19.4866 8.46517Q19.5734 8.55195 19.6558 8.64288Q19.7382 8.7338 19.8161 8.82867Q19.8939 8.92353 19.967 9.0221Q20.0401 9.12067 20.1083 9.2227Q20.1765 9.32474 20.2396 9.43Q20.3027 9.53526 20.3605 9.64349Q20.4184 9.75171 20.4708 9.86265Q20.5233 9.97359 20.5703 10.087Q20.6172 10.2003 20.6586 10.3159Q20.6999 10.4314 20.7356 10.5489Q20.7712 10.6663 20.801 10.7853Q20.8308 10.9044 20.8548 11.0247Q20.8787 11.1451 20.8967 11.2665Q20.9147 11.3879 20.9267 11.51Q20.9388 11.6321 20.9448 11.7547Q20.9508 11.8773 20.9508 12Q20.9508 12.1227 20.9448 12.2453Q20.9388 12.3679 20.9267 12.49Q20.9147 12.6121 20.8967 12.7335Q20.8787 12.8549 20.8548 12.9753Q20.8308 13.0956 20.801 13.2147Q20.7712 13.3337 20.7356 13.4511Q20.6999 13.5686 20.6586 13.6841Q20.6172 13.7997 20.5703 13.913Q20.5233 14.0264 20.4708 14.1373Q20.4184 14.2483 20.3605 14.3565Q20.3027 14.4647 20.2396 14.57Q20.1765 14.6753 20.1083 14.7773Q20.0401 14.8793 19.967 14.9779Q19.8939 15.0765 19.8161 15.1713Q19.7382 15.2662 19.6558 15.3571Q19.5734 15.4481 19.4866 15.5348L15.5348 19.4866Q15.448 19.5734 15.3571 19.6558Q15.2662 19.7382 15.1713 19.8161Q15.0765 19.8939 14.9779 19.967Q14.8793 20.0401 14.7773 20.1083Q14.6753 20.1765 14.57 20.2396Q14.4647 20.3027 14.3565 20.3605Q14.2483 20.4184 14.1373 20.4709Q14.0264 20.5233 13.913 20.5703Q13.7997 20.6172 13.6841 20.6586Q13.5686 20.6999 13.4511 20.7356Q13.3337 20.7712 13.2147 20.801Q13.0956 20.8308 12.9752 20.8548Q12.8549 20.8787 12.7335 20.8967Q12.6121 20.9147 12.49 20.9267Q12.3679 20.9388 12.2453 20.9448Q12.1227 20.9508 12 20.9508Q11.8773 20.9508 11.7547 20.9448Q11.6321 20.9388 11.51 20.9267Q11.3879 20.9147 11.2665 20.8967Q11.1451 20.8787 11.0247 20.8548Q10.9044 20.8308 10.7853 20.801Q10.6663 20.7712 10.5489 20.7356Q10.4314 20.6999 10.3159 20.6586Q10.2003 20.6172 10.087 20.5703Q9.97358 20.5233 9.86265 20.4709Q9.75171 20.4184 9.64348 20.3605Q9.53525 20.3027 9.43 20.2396Q9.32474 20.1765 9.2227 20.1083Q9.12066 20.0401 9.02209 19.967Q8.92353 19.8939 8.82866 19.8161Q8.7338 19.7382 8.64287 19.6558Q8.55194 19.5734 8.46517 19.4866L4.51335 15.5348Q4.42658 15.4481 4.34417 15.3571Q4.26175 15.2662 4.1839 15.1713Q4.10605 15.0765 4.03295 14.9779Q3.95984 14.8793 3.89166 14.7773Q3.82349 14.6753 3.7604 14.57Q3.69731 14.4647 3.63946 14.3565Q3.58161 14.2483 3.52914 14.1373Q3.47667 14.0264 3.42971 13.913Q3.38274 13.7997 3.3414 13.6841Q3.30006 13.5686 3.26444 13.4511Q3.22881 13.3337 3.19899 13.2147Q3.16918 13.0956 3.14524 12.9753Q3.12129 12.8549 3.10329 12.7335Q3.08528 12.6121 3.07325 12.49Q3.06122 12.3679 3.0552 12.2453Q3.04918 12.1227 3.04918 12Q3.04918 11.8773 3.0552 11.7547Q3.06122 11.6321 3.07325 11.51Q3.08528 11.3879 3.10329 11.2665Q3.12129 11.1451 3.14524 11.0247Q3.16918 10.9044 3.19899 10.7853Q3.22881 10.6663 3.26444 10.5489Q3.30006 10.4314 3.3414 10.3159Q3.38274 10.2003 3.42971 10.087Q3.47667 9.97359 3.52914 9.86265Q3.58161 9.75171 3.63946 9.64349Q3.69731 9.53526 3.7604 9.43Q3.82349 9.32474 3.89166 9.2227Q3.95984 9.12067 4.03295 9.0221Q4.10605 8.92353 4.1839 8.82867Q4.26175 8.73381 4.34417 8.64288Q4.42658 8.55195 4.51335 8.46517Z" id="Rectangle" fill="none" fill-rule="evenodd" stroke="#323232" stroke-width="1.5" stroke-linecap="round" stroke-linejoin="round" />
    <path d="M0 0L24 0L24 24L0 24L0 0Z" id="Path" fill="none" fill-rule="evenodd" stroke="none" />
    <g id="Q" transform="translate(8.5 8)">
      <path d="M3.50252 7.26034C3.96046 7.26034 4.38318 7.19708 4.77067 7.07056L5.21352 7.68856C5.36449 7.91241 5.52552 8 5.77211 8C6.13444 8 6.39109 7.77129 6.39109 7.45012C6.39109 7.29927 6.35083 7.18735 6.25018 7.0365L5.84256 6.46229C6.59238 5.86375 7 4.87105 7 3.63504C7 1.40146 5.65133 0 3.50252 0C1.34867 0 0 1.40146 0 3.63504C0 5.88808 1.34867 7.26034 3.50252 7.26034ZM3.50252 6.04866C2.30985 6.04866 1.54996 5.10462 1.54996 3.63504C1.54996 2.16058 2.30985 1.21168 3.50252 1.21168C4.69015 1.21168 5.45004 2.16058 5.45004 3.63504C5.45004 4.31144 5.25881 4.86618 4.92164 5.24574L4.58447 4.80292C4.45866 4.6326 4.31272 4.55961 4.10137 4.55961C3.77426 4.55961 3.53271 4.78345 3.53271 5.09976C3.53271 5.22141 3.57297 5.34793 3.67362 5.49392L4.02085 5.98054C3.85981 6.02433 3.68871 6.04866 3.50252 6.04866Z" id="Shape" fill="#84888B" stroke="none" />
    </g>
  </g>
</svg>