<?xml version="1.0" encoding="utf-8"?>
<svg width="24px" height="24px" viewBox="0 0 24 24" version="1.1" xmlns:xlink="http://www.w3.org/1999/xlink" xmlns="http://www.w3.org/2000/svg">
  <g id="VideoCamera-Copy-2">
    <path d="M0 0L24 0L24 24L0 24L0 0Z" id="Rectangle" fill="none" fill-rule="evenodd" stroke="none" />
    <path d="M16.5 8.625L16.5 17.625C16.4991 18.453 15.828 19.1241 15 19.125L4.5 19.125C2.42991 19.1226 0.752368 17.4451 0.75 15.375L0.75 6.375C0.750947 5.54697 1.42197 4.87595 2.25 4.875L12.75 4.875C14.8201 4.87737 16.4976 6.55491 16.5 8.625L16.5 8.625ZM22.8765 6.85135C22.6452 6.71721 22.3601 6.71623 22.1279 6.84879L18.3779 8.99167C18.1442 9.1252 18 9.37372 18 9.64288L18 14.3571C18 14.6263 18.1442 14.8748 18.3779 15.0083L22.1279 17.1512C22.3601 17.2838 22.6452 17.2829 22.8765 17.1487C23.1077 17.0145 23.25 16.7673 23.25 16.5L23.25 7.5C23.25 7.23265 23.1077 6.98551 22.8765 6.85135Z" id="Shape" fill="#FFFFFF" stroke="none" />
  </g>
</svg>