<?xml version="1.0" encoding="utf-8"?>
<svg width="41px" height="20px" viewBox="0 0 41 20" version="1.1" xmlns:xlink="http://www.w3.org/1999/xlink" xmlns="http://www.w3.org/2000/svg">
  <g id="Group-13">
    <path d="M5.999 0L35.001 0Q35.1483 0 35.2954 0.00722606Q35.4424 0.0144521 35.589 0.0288868Q35.7356 0.0433215 35.8812 0.0649301Q36.0269 0.0865387 36.1713 0.115269Q36.3158 0.143999 36.4586 0.179782Q36.6015 0.215565 36.7424 0.258315Q36.8833 0.301064 37.022 0.350677Q37.1607 0.40029 37.2967 0.456647Q37.4328 0.513003 37.5659 0.575968Q37.699 0.638933 37.8289 0.708354Q37.9588 0.777776 38.0851 0.853486Q38.2114 0.929196 38.3339 1.01101Q38.4563 1.09283 38.5746 1.18056Q38.6929 1.26828 38.8067 1.36171Q38.9206 1.45514 39.0297 1.55403Q39.1388 1.65293 39.2429 1.75707Q39.3471 1.8612 39.446 1.97032Q39.5449 2.07944 39.6383 2.19327Q39.7317 2.30711 39.8194 2.4254Q39.9072 2.54369 39.989 2.66613Q40.0708 2.78858 40.1465 2.9149Q40.2222 3.04121 40.2916 3.17109Q40.3611 3.30097 40.424 3.4341Q40.487 3.56722 40.5433 3.70328Q40.5997 3.83934 40.6493 3.978Q40.6989 4.11666 40.7417 4.25758Q40.7844 4.39851 40.8202 4.54136Q40.856 4.68422 40.8847 4.82865Q40.9135 4.97309 40.9351 5.11876Q40.9567 5.26444 40.9711 5.411Q40.9855 5.55755 40.9928 5.70464Q41 5.85173 41 5.999L41 14.001Q41 14.1483 40.9928 14.2954Q40.9855 14.4424 40.9711 14.589Q40.9567 14.7356 40.9351 14.8812Q40.9135 15.0269 40.8847 15.1713Q40.856 15.3158 40.8202 15.4586Q40.7844 15.6015 40.7417 15.7424Q40.6989 15.8833 40.6493 16.022Q40.5997 16.1607 40.5434 16.2967Q40.487 16.4328 40.424 16.5659Q40.3611 16.699 40.2916 16.8289Q40.2222 16.9588 40.1465 17.0851Q40.0708 17.2114 39.989 17.3339Q39.9072 17.4563 39.8194 17.5746Q39.7317 17.6929 39.6383 17.8067Q39.5449 17.9206 39.446 18.0297Q39.3471 18.1388 39.2429 18.2429Q39.1388 18.3471 39.0297 18.446Q38.9206 18.5449 38.8067 18.6383Q38.6929 18.7317 38.5746 18.8194Q38.4563 18.9072 38.3339 18.989Q38.2114 19.0708 38.0851 19.1465Q37.9588 19.2222 37.8289 19.2916Q37.699 19.3611 37.5659 19.424Q37.4328 19.487 37.2967 19.5433Q37.1607 19.5997 37.022 19.6493Q36.8833 19.6989 36.7424 19.7417Q36.6015 19.7844 36.4586 19.8202Q36.3158 19.856 36.1713 19.8847Q36.0269 19.9135 35.8812 19.9351Q35.7356 19.9567 35.589 19.9711Q35.4424 19.9855 35.2954 19.9928Q35.1483 20 35.001 20L5.999 20Q5.85173 20 5.70464 19.9928Q5.55755 19.9855 5.411 19.9711Q5.26444 19.9567 5.11876 19.9351Q4.97309 19.9135 4.82865 19.8847Q4.68422 19.856 4.54136 19.8202Q4.39851 19.7844 4.25758 19.7417Q4.11666 19.6989 3.978 19.6493Q3.83934 19.5997 3.70328 19.5433Q3.56722 19.487 3.4341 19.424Q3.30097 19.3611 3.17109 19.2916Q3.04121 19.2222 2.9149 19.1465Q2.78858 19.0708 2.66613 18.989Q2.54369 18.9072 2.4254 18.8194Q2.30711 18.7317 2.19327 18.6383Q2.07944 18.5449 1.97032 18.446Q1.8612 18.3471 1.75707 18.2429Q1.65293 18.1388 1.55403 18.0297Q1.45514 17.9206 1.36171 17.8067Q1.26829 17.6929 1.18056 17.5746Q1.09283 17.4563 1.01101 17.3339Q0.929196 17.2114 0.853486 17.0851Q0.777776 16.9588 0.708354 16.8289Q0.638933 16.699 0.575968 16.5659Q0.513003 16.4328 0.456647 16.2967Q0.40029 16.1607 0.350677 16.022Q0.301064 15.8833 0.258315 15.7424Q0.215565 15.6015 0.179782 15.4586Q0.143999 15.3158 0.115269 15.1713Q0.0865387 15.0269 0.0649301 14.8812Q0.0433215 14.7356 0.0288868 14.589Q0.0144521 14.4424 0.00722606 14.2954Q0 14.1483 0 14.001L0 5.999Q0 5.85173 0.00722606 5.70464Q0.0144521 5.55755 0.0288868 5.411Q0.0433215 5.26444 0.0649301 5.11876Q0.0865387 4.97309 0.115269 4.82865Q0.143999 4.68422 0.179782 4.54136Q0.215565 4.39851 0.258315 4.25758Q0.301064 4.11666 0.350677 3.978Q0.40029 3.83934 0.456647 3.70328Q0.513003 3.56722 0.575968 3.4341Q0.638933 3.30097 0.708354 3.17109Q0.777776 3.04121 0.853486 2.9149Q0.929196 2.78858 1.01101 2.66613Q1.09283 2.54369 1.18056 2.4254Q1.26828 2.30711 1.36171 2.19327Q1.45514 2.07944 1.55403 1.97032Q1.65293 1.8612 1.75707 1.75707Q1.8612 1.65293 1.97032 1.55403Q2.07944 1.45514 2.19327 1.36171Q2.30711 1.26829 2.4254 1.18056Q2.54369 1.09283 2.66613 1.01101Q2.78858 0.929196 2.9149 0.853486Q3.04121 0.777776 3.17109 0.708354Q3.30097 0.638933 3.4341 0.575968Q3.56722 0.513003 3.70328 0.456647Q3.83934 0.40029 3.978 0.350677Q4.11666 0.301064 4.25758 0.258315Q4.39851 0.215565 4.54136 0.179782Q4.68422 0.143999 4.82865 0.115269Q4.97309 0.0865387 5.11876 0.0649301Q5.26444 0.0433215 5.411 0.0288868Q5.55755 0.0144521 5.70464 0.00722606Q5.85173 0 5.999 0Z" id="Rectangle" fill="#FF453A" fill-rule="evenodd" stroke="none" />
    <path d="M6 13.7889L6 6.21106L7.98741 6.21106L11.658 10.8442L11.658 6.21106L13.6353 6.21106L13.6353 13.7889L11.658 13.7889L7.98741 9.15578L7.98741 13.7889L6 13.7889Z" id="Path" fill="#FFFFFF" stroke="none" />
    <path d="M16.8598 10C16.8598 10.3015 16.9172 10.5796 17.0322 10.8342C17.1471 11.0888 17.3026 11.3099 17.4986 11.4975C17.6946 11.6851 17.9228 11.8308 18.183 11.9347C18.4433 12.0385 18.7188 12.0905 19.0094 12.0905C19.3001 12.0905 19.5756 12.0385 19.8358 11.9347C20.0961 11.8308 20.3259 11.6851 20.5254 11.4975C20.7248 11.3099 20.8819 11.0888 20.9969 10.8342C21.1118 10.5796 21.1692 10.3015 21.1692 10C21.1692 9.69849 21.1118 9.42043 20.9969 9.16583C20.8819 8.91122 20.7248 8.69012 20.5254 8.50251C20.3259 8.31491 20.0961 8.16918 19.8358 8.06533C19.5756 7.96147 19.3001 7.90955 19.0094 7.90955C18.7188 7.90955 18.4433 7.96147 18.183 8.06533C17.9228 8.16918 17.6946 8.31491 17.4986 8.50251C17.3026 8.69012 17.1471 8.91122 17.0322 9.16583C16.9172 9.42043 16.8598 9.69849 16.8598 10ZM14.7811 10C14.7811 9.43719 14.8859 8.9129 15.0955 8.42714C15.305 7.94137 15.5957 7.51759 15.9675 7.15578C16.3393 6.79397 16.7837 6.51089 17.3009 6.30653C17.818 6.10218 18.3875 6 19.0094 6C19.6246 6 20.1924 6.10218 20.7129 6.30653C21.2334 6.51089 21.6813 6.79397 22.0565 7.15578C22.4316 7.51759 22.724 7.94137 22.9336 8.42714C23.1431 8.9129 23.2479 9.43719 23.2479 10C23.2479 10.5628 23.1431 11.0871 22.9336 11.5729C22.724 12.0586 22.4316 12.4824 22.0565 12.8442C21.6813 13.206 21.2334 13.4891 20.7129 13.6935C20.1924 13.8978 19.6246 14 19.0094 14C18.3875 14 17.818 13.8978 17.3009 13.6935C16.7837 13.4891 16.3393 13.206 15.9675 12.8442C15.5957 12.4824 15.305 12.0586 15.0955 11.5729C14.8859 11.0871 14.7811 10.5628 14.7811 10Z" id="Shape" fill="#FFFFFF" stroke="none" />
    <path d="M25.4584 6.21106L26.7766 11.1055L28.399 6.21106L29.9808 6.21106L31.6031 11.1055L32.9213 6.21106L35 6.21106L32.7185 13.7889L30.6906 13.7889L29.1899 9.39699L27.6892 13.7889L25.6612 13.7889L23.3797 6.21106L25.4584 6.21106Z" id="Path" fill="#FFFFFF" stroke="none" />
  </g>
</svg>