<?xml version="1.0" encoding="utf-8"?>
<svg width="68px" height="18px" viewBox="0 0 68 18" version="1.1" xmlns:xlink="http://www.w3.org/1999/xlink" xmlns="http://www.w3.org/2000/svg">
  <g id="Group-14">
    <path d="M13.6424 3.55365C13.6295 4.13305 13.575 4.71245 13.4786 5.29185C13.3823 5.87124 13.2313 6.38627 13.0258 6.83691L16.1666 6.83691L16.1666 8.76824L0 8.76824L0 6.83691L10.5208 6.83691C10.6107 6.51502 10.6782 6.18991 10.7232 5.86159C10.7681 5.53326 10.8034 5.21459 10.8291 4.90558C10.3795 5.06009 9.8689 5.1824 9.29725 5.27253C8.72561 5.36266 8.06083 5.40773 7.30292 5.40773L2.17739 5.40773L2.17739 3.49571L7.30292 3.49571C7.50845 3.49571 7.76216 3.48927 8.06404 3.4764C8.36592 3.46352 8.68386 3.44099 9.01785 3.4088C9.35185 3.37661 9.68263 3.3412 10.0102 3.30258C10.3378 3.26395 10.63 3.21888 10.8869 3.16738L10.8869 2.62661C10.8869 2.27897 10.6878 2.10515 10.2896 2.10515L2.38935 2.10515L2.38935 0.193133L11.7926 0.193133C12.4092 0.193133 12.8716 0.331545 13.1799 0.608369C13.4882 0.885193 13.6424 1.24249 13.6424 1.68026L13.6424 3.55365ZM13.2763 9.92704C13.713 9.92704 13.9314 10.1524 13.9314 10.603L13.9314 14.4464C13.9314 14.5751 13.8833 14.6781 13.7869 14.7554C13.6906 14.8326 13.5653 14.8712 13.4112 14.8712L4.95211 14.8712L4.95211 15.7597C4.95211 16.0043 5.05488 16.1266 5.26041 16.1266L14.2012 16.1266L14.2012 18L3.52621 18C3.06376 18 2.72655 17.9002 2.51459 17.7006C2.30264 17.5011 2.19666 17.1824 2.19666 16.7446L2.19666 13.0172L11.176 13.0172L11.176 11.8004L2.25446 11.8004L2.25446 9.92704L13.2763 9.92704Z" id="Shape" fill="#FFFFFF" stroke="none" />
    <path d="M25.8782 7.82189C25.8782 8.11803 25.7176 8.26609 25.3964 8.26609L20.1746 8.26609L20.1746 10.2554C20.1746 10.5129 20.1938 10.7318 20.2324 10.912C20.2709 11.0923 20.3512 11.2436 20.4732 11.3659C20.5953 11.4882 20.7623 11.5783 20.9742 11.6363C21.1862 11.6942 21.4656 11.7232 21.8124 11.7232C22.2492 11.7232 22.7405 11.6974 23.2865 11.6459C23.8324 11.5944 24.4009 11.5268 24.9918 11.4431C25.5827 11.3594 26.18 11.2661 26.7838 11.1631C27.3876 11.0601 27.9592 10.9506 28.4987 10.8348L28.4987 0L31.1578 0L31.1578 6.04506L33.6821 6.04506L33.6821 8.1309L31.1578 8.1309L31.1578 17.1116L28.4987 17.1116L28.4987 12.4957C27.9592 12.676 27.3651 12.8433 26.7164 12.9979C26.0676 13.1524 25.4157 13.2876 24.7606 13.4034C24.1054 13.5193 23.4663 13.6094 22.8433 13.6738C22.2203 13.7382 21.6647 13.7704 21.1765 13.7704C20.4957 13.7704 19.9208 13.7028 19.452 13.5676C18.9831 13.4324 18.6009 13.2328 18.3055 12.9689C18.01 12.7049 17.7981 12.3798 17.6696 11.9936C17.5411 11.6073 17.4769 11.1631 17.4769 10.6609L17.4769 6.2382L23.1805 6.2382L23.1805 3.1867L17.554 3.1867L17.554 1.13948L24.9918 1.13948C25.5827 1.13948 25.8782 1.43562 25.8782 2.0279L25.8782 7.82189Z" id="Path" fill="#FFFFFF" stroke="none" />
    <path d="M47.8254 4.55794C47.8254 5.15021 47.7034 5.71352 47.4593 6.24785C47.2153 6.78219 46.8684 7.25215 46.4188 7.65773C45.9692 8.0633 45.42 8.38519 44.7713 8.62339C44.1226 8.86159 43.3872 8.98069 42.565 8.98069C41.7429 8.98069 41.0075 8.86159 40.3587 8.62339C39.71 8.38519 39.1609 8.0633 38.7113 7.65773C38.2616 7.25215 37.918 6.78219 37.6804 6.24785C37.4427 5.71352 37.3239 5.15021 37.3239 4.55794C37.3239 3.96566 37.4427 3.40236 37.6804 2.86803C37.918 2.33369 38.2616 1.86373 38.7113 1.45815C39.1609 1.05258 39.71 0.730687 40.3587 0.492489C41.0075 0.254292 41.7429 0.135193 42.565 0.135193C43.3872 0.135193 44.1226 0.254292 44.7713 0.492489C45.42 0.730687 45.9692 1.05258 46.4188 1.45815C46.8684 1.86373 47.2153 2.33369 47.4593 2.86803C47.7034 3.40236 47.8254 3.96566 47.8254 4.55794ZM41.2162 17.2082L41.2162 12.1288L34.4914 12.1288L34.4914 10.0622L50.658 10.0622L50.658 12.1288L43.9909 12.1288L43.9909 17.2082L41.2162 17.2082ZM45.1471 4.55794C45.1471 4.2103 45.0828 3.88841 44.9544 3.59227C44.8259 3.29614 44.6461 3.04185 44.4148 2.8294C44.1836 2.61695 43.9106 2.44957 43.5959 2.32725C43.2812 2.20494 42.9376 2.14378 42.565 2.14378C41.8071 2.14378 41.1905 2.3691 40.7152 2.81974C40.2399 3.27039 40.0023 3.84979 40.0023 4.55794C40.0023 5.26609 40.2399 5.84549 40.7152 6.29614C41.1905 6.74678 41.8071 6.9721 42.565 6.9721C42.9376 6.9721 43.2812 6.91094 43.5959 6.78863C43.9106 6.66631 44.1836 6.49893 44.4148 6.28648C44.6461 6.07403 44.8259 5.81974 44.9544 5.52361C45.0828 5.22747 45.1471 4.90558 45.1471 4.55794Z" id="Shape" fill="#FFFFFF" stroke="none" />
    <path d="M53.9337 1.13949L65.6299 1.13949L65.6299 3.1867L56.7084 3.1867L56.7084 6.25751C56.7084 6.81116 56.8337 7.19421 57.0842 7.40665C57.3347 7.6191 57.704 7.72532 58.1921 7.72532C59.117 7.72532 60.2282 7.71245 61.5256 7.6867C62.8231 7.66094 64.2683 7.603 65.8612 7.51288L65.8612 9.42489C65.0647 9.50215 64.2683 9.56652 63.4718 9.61803C62.6754 9.66953 61.9014 9.70494 61.1499 9.72425C60.3984 9.74356 59.679 9.75644 58.9918 9.76288C58.3045 9.76931 57.6783 9.77253 57.1131 9.77253C56.0597 9.77253 55.2665 9.50215 54.7334 8.96137C54.2002 8.4206 53.9337 7.64807 53.9337 6.64378L53.9337 1.13949ZM68 12.8047L68 14.8712L51.8334 14.8712L51.8334 12.8047L68 12.8047Z" id="Shape" fill="#FFFFFF" stroke="none" />
  </g>
</svg>