<?xml version="1.0" encoding="utf-8"?>
<svg width="32px" height="32px" viewBox="0 0 32 32" version="1.1" xmlns:xlink="http://www.w3.org/1999/xlink" xmlns="http://www.w3.org/2000/svg">
  <g id="Ic---close">
    <path d="M0 0L32 0L32 32L0 32L0 0Z" id="Path" fill="none" fill-rule="evenodd" stroke="none" />
    <path d="M7.5148 24.4853C12.2011 29.1715 19.799 29.1715 24.4853 24.4853C29.1716 19.799 29.1716 12.201 24.4853 7.51472C19.7991 2.82843 12.2011 2.82843 7.5148 7.51472C2.82851 12.201 2.82851 19.799 7.5148 24.4853ZM18.6116 11.6479L16 14.2594L13.3884 11.6479Q13.2155 11.4749 12.9895 11.3813Q12.7635 11.2877 12.5189 11.2877Q12.2742 11.2877 12.0482 11.3813Q11.8223 11.4749 11.6493 11.6479L11.6479 11.6493Q11.6051 11.692 11.5668 11.7387Q11.5285 11.7854 11.4949 11.8356Q11.4614 11.8859 11.4329 11.9391Q11.4044 11.9924 11.3813 12.0482Q11.3582 12.1041 11.3406 12.1619Q11.3231 12.2197 11.3113 12.2789Q11.2995 12.3382 11.2936 12.3983Q11.2877 12.4584 11.2877 12.5189Q11.2877 12.5793 11.2936 12.6394Q11.2995 12.6995 11.3113 12.7588Q11.3231 12.818 11.3406 12.8758Q11.3582 12.9337 11.3813 12.9895Q11.4044 13.0453 11.4329 13.0986Q11.4614 13.1518 11.4949 13.2021Q11.5285 13.2523 11.5668 13.299Q11.6051 13.3457 11.6479 13.3884L14.2594 16L11.6479 18.6116Q11.4749 18.7845 11.3813 19.0105Q11.2877 19.2365 11.2877 19.4811Q11.2877 19.7258 11.3813 19.9518Q11.4749 20.1777 11.6479 20.3507L11.6493 20.3521Q11.8223 20.5251 12.0482 20.6187Q12.2742 20.7123 12.5189 20.7123Q12.7635 20.7123 12.9895 20.6187Q13.2155 20.5251 13.3884 20.3521L16 17.7406L18.6116 20.3521Q18.6543 20.3949 18.701 20.4332Q18.7477 20.4715 18.7979 20.5051Q18.8482 20.5386 18.9014 20.5671Q18.9547 20.5956 19.0105 20.6187Q19.0663 20.6418 19.1242 20.6594Q19.182 20.6769 19.2412 20.6887Q19.3005 20.7005 19.3606 20.7064Q19.4207 20.7123 19.4811 20.7123Q19.5416 20.7123 19.6017 20.7064Q19.6618 20.7005 19.7211 20.6887Q19.7803 20.6769 19.8381 20.6594Q19.8959 20.6418 19.9517 20.6187Q20.0076 20.5956 20.0608 20.5671Q20.1141 20.5386 20.1644 20.5051Q20.2146 20.4715 20.2613 20.4332Q20.308 20.3949 20.3507 20.3521L20.3521 20.3507Q20.3949 20.308 20.4332 20.2613Q20.4715 20.2146 20.5051 20.1644Q20.5386 20.1141 20.5671 20.0608Q20.5956 20.0076 20.6187 19.9517Q20.6418 19.8959 20.6594 19.8381Q20.6769 19.7803 20.6887 19.7211Q20.7005 19.6618 20.7064 19.6017Q20.7123 19.5416 20.7123 19.4811Q20.7123 19.4207 20.7064 19.3606Q20.7005 19.3005 20.6887 19.2412Q20.6769 19.182 20.6594 19.1242Q20.6418 19.0663 20.6187 19.0105Q20.5956 18.9547 20.5671 18.9014Q20.5386 18.8482 20.5051 18.7979Q20.4715 18.7477 20.4332 18.701Q20.3949 18.6543 20.3521 18.6116L17.7406 16L20.3521 13.3884Q20.5251 13.2155 20.6187 12.9895Q20.7123 12.7635 20.7123 12.5189Q20.7123 12.2742 20.6187 12.0482Q20.5251 11.8223 20.3521 11.6493L20.3507 11.6479Q20.1777 11.4749 19.9518 11.3813Q19.7258 11.2877 19.4811 11.2877Q19.2365 11.2877 19.0105 11.3813Q18.7845 11.4749 18.6116 11.6479Z" id="Combined-Shape" fill="#FFFFFF" fill-opacity="0.4" fill-rule="evenodd" stroke="none" />
  </g>
</svg>