<?xml version="1.0" encoding="utf-8"?>
<svg width="24px" height="24px" viewBox="0 0 24 24" version="1.1" xmlns:xlink="http://www.w3.org/1999/xlink" xmlns="http://www.w3.org/2000/svg">
  <defs>
    <rect width="24" height="24" id="artboard_1" />
    <clipPath id="clip_1">
      <use xlink:href="#artboard_1" clip-rule="evenodd" />
    </clipPath>
  </defs>
  <g id="Ic--연수--집합연수" clip-path="url(#clip_1)">
    <path d="M0 0L24 0L24 24L0 24L0 0Z" id="Area" fill="none" fill-rule="evenodd" stroke="none" />
    <g id="Ic---집합연수" transform="translate(1 3)">
      <path d="M16 18L16 1C16 0.448 15.552 0 15 0L7 0C6.448 0 6 0.448 6 1L6 18" id="Path" fill="none" fill-rule="evenodd" stroke="#000000" stroke-width="1.5" stroke-linecap="round" stroke-linejoin="round" />
      <path d="M6 6L2 6C1.448 6 1 6.448 1 7L1 18" id="Path" fill="none" fill-rule="evenodd" stroke="#000000" stroke-width="1.5" stroke-linecap="round" stroke-linejoin="round" />
      <path d="M21 18L21 7C21 6.448 20.552 6 20 6L16 6" id="Path" fill="none" fill-rule="evenodd" stroke="#000000" stroke-width="1.5" stroke-linecap="round" stroke-linejoin="round" />
      <path d="M8.5 14L13.5 14" id="Path" fill="none" fill-rule="evenodd" stroke="#000000" stroke-width="1.5" stroke-linecap="round" stroke-linejoin="round" />
      <path d="M12.5 14L12.5 18" id="Path" fill="none" fill-rule="evenodd" stroke="#000000" stroke-width="1.5" stroke-linecap="round" stroke-linejoin="round" />
      <path d="M9.5 18L9.5 14" id="Path" fill="none" fill-rule="evenodd" stroke="#000000" stroke-width="1.5" stroke-linecap="round" stroke-linejoin="round" />
      <path d="M9 7.5L13 7.5" id="Path" fill="none" fill-rule="evenodd" stroke="#000000" stroke-width="1.5" stroke-linecap="round" stroke-linejoin="round" />
      <path d="M9 10.5L13 10.5" id="Path" fill="none" fill-rule="evenodd" stroke="#000000" stroke-width="1.5" stroke-linecap="round" stroke-linejoin="round" />
      <path d="M9 4.5L13 4.5" id="Path" fill="none" fill-rule="evenodd" stroke="#000000" stroke-width="1.5" stroke-linecap="round" stroke-linejoin="round" />
      <path d="M4 10.5L6 10.5" id="Path" fill="none" fill-rule="evenodd" stroke="#000000" stroke-width="1.5" stroke-linecap="round" stroke-linejoin="round" />
      <path d="M4 14L6 14" id="Path" fill="none" fill-rule="evenodd" stroke="#000000" stroke-width="1.5" stroke-linecap="round" stroke-linejoin="round" />
      <path d="M16 10.5L18 10.5" id="Path" fill="none" fill-rule="evenodd" stroke="#000000" stroke-width="1.5" stroke-linecap="round" stroke-linejoin="round" />
      <path d="M16 14L18 14" id="Path" fill="none" fill-rule="evenodd" stroke="#000000" stroke-width="1.5" stroke-linecap="round" stroke-linejoin="round" />
      <path d="M22 18L0 18" id="Path" fill="none" fill-rule="evenodd" stroke="#000000" stroke-width="1.5" stroke-linecap="round" stroke-linejoin="round" />
    </g>
  </g>
</svg>