<?xml version="1.0" encoding="utf-8"?>
<svg width="124px" height="48px" viewBox="0 0 124 48" version="1.1" xmlns:xlink="http://www.w3.org/1999/xlink" xmlns="http://www.w3.org/2000/svg">
  <defs>
    <filter id="filter_1">
      <feColorMatrix in="SourceGraphic" type="matrix" values="0 0 0 0 0.32941177 0 0 0 0 0.3137255 0 0 0 0 0.27058825 0 0 0 1 0" />
    </filter>
  </defs>
  <g id="Btn--Ic-Text">
    <path d="M15.999 0L108.001 0Q108.394 0 108.786 0.0192715Q109.178 0.038543 109.569 0.0770395Q109.96 0.115536 110.349 0.173165Q110.737 0.230794 111.122 0.307416Q111.507 0.384039 111.888 0.47947Q112.269 0.574901 112.645 0.688911Q113.021 0.802922 113.391 0.935236Q113.761 1.06755 114.124 1.21785Q114.486 1.36815 114.841 1.53607Q115.196 1.704 115.543 1.88914Q115.889 2.07428 116.226 2.2762Q116.563 2.47812 116.89 2.69632Q117.216 2.91452 117.532 3.14848Q117.847 3.38245 118.151 3.63161Q118.454 3.88077 118.745 4.14452Q119.036 4.40828 119.314 4.686Q119.592 4.96372 119.855 5.25473Q120.119 5.54574 120.368 5.84934Q120.618 6.15294 120.852 6.46841Q121.085 6.78387 121.304 7.11043Q121.522 7.43699 121.724 7.77387Q121.926 8.11075 122.111 8.45712Q122.296 8.8035 122.464 9.15855Q122.632 9.51359 122.782 9.87645Q122.932 10.2393 123.065 10.6091Q123.197 10.9789 123.311 11.3547Q123.425 11.7306 123.521 12.1116Q123.616 12.4925 123.693 12.8777Q123.769 13.263 123.827 13.6515Q123.884 14.04 123.923 14.4308Q123.961 14.8217 123.981 15.214Q124 15.6062 124 15.999L124 32.001Q124 32.3938 123.981 32.786Q123.961 33.1783 123.923 33.5692Q123.884 33.96 123.827 34.3485Q123.769 34.737 123.693 35.1222Q123.616 35.5075 123.521 35.8884Q123.425 36.2694 123.311 36.6453Q123.197 37.0211 123.065 37.3909Q122.932 37.7607 122.782 38.1235Q122.632 38.4864 122.464 38.8415Q122.296 39.1965 122.111 39.5429Q121.926 39.8893 121.724 40.2261Q121.522 40.563 121.304 40.8896Q121.085 41.2161 120.852 41.5316Q120.618 41.8471 120.368 42.1507Q120.119 42.4543 119.855 42.7453Q119.592 43.0363 119.314 43.314Q119.036 43.5917 118.745 43.8555Q118.454 44.1192 118.151 44.3684Q117.847 44.6175 117.532 44.8515Q117.216 45.0855 116.89 45.3037Q116.563 45.5219 116.226 45.7238Q115.889 45.9257 115.543 46.1109Q115.196 46.296 114.841 46.4639Q114.486 46.6318 114.124 46.7821Q113.761 46.9324 113.391 47.0648Q113.021 47.1971 112.645 47.3111Q112.269 47.4251 111.888 47.5205Q111.507 47.616 111.122 47.6926Q110.737 47.7692 110.349 47.8268Q109.96 47.8845 109.569 47.923Q109.178 47.9615 108.786 47.9807Q108.394 48 108.001 48L15.999 48Q15.6062 48 15.214 47.9807Q14.8217 47.9615 14.4308 47.923Q14.04 47.8845 13.6515 47.8268Q13.263 47.7692 12.8777 47.6926Q12.4925 47.616 12.1116 47.5205Q11.7306 47.4251 11.3547 47.3111Q10.9789 47.1971 10.6091 47.0648Q10.2393 46.9324 9.87645 46.7821Q9.51359 46.6318 9.15855 46.4639Q8.8035 46.296 8.45712 46.1109Q8.11075 45.9257 7.77387 45.7238Q7.43699 45.5219 7.11043 45.3037Q6.78387 45.0855 6.46841 44.8515Q6.15294 44.6175 5.84934 44.3684Q5.54574 44.1192 5.25473 43.8555Q4.96372 43.5917 4.686 43.314Q4.40828 43.0363 4.14452 42.7453Q3.88077 42.4543 3.63161 42.1507Q3.38245 41.8471 3.14848 41.5316Q2.91452 41.2161 2.69632 40.8896Q2.47812 40.563 2.2762 40.2261Q2.07428 39.8892 1.88914 39.5429Q1.704 39.1965 1.53607 38.8415Q1.36815 38.4864 1.21785 38.1235Q1.06755 37.7607 0.935236 37.3909Q0.802922 37.0211 0.688911 36.6453Q0.574901 36.2694 0.47947 35.8884Q0.384039 35.5075 0.307416 35.1222Q0.230794 34.737 0.173165 34.3485Q0.115536 33.96 0.0770395 33.5692Q0.038543 33.1783 0.0192715 32.786Q0 32.3938 0 32.001L0 15.999Q0 15.6062 0.0192715 15.214Q0.038543 14.8217 0.0770395 14.4308Q0.115536 14.04 0.173165 13.6515Q0.230794 13.263 0.307416 12.8777Q0.384039 12.4925 0.47947 12.1116Q0.574901 11.7306 0.688911 11.3547Q0.802922 10.9789 0.935236 10.6091Q1.06755 10.2393 1.21785 9.87645Q1.36815 9.51359 1.53607 9.15855Q1.704 8.8035 1.88914 8.45712Q2.07428 8.11075 2.2762 7.77387Q2.47812 7.43699 2.69632 7.11043Q2.91452 6.78387 3.14848 6.46841Q3.38245 6.15294 3.63161 5.84934Q3.88077 5.54574 4.14452 5.25473Q4.40828 4.96372 4.686 4.686Q4.96372 4.40828 5.25473 4.14452Q5.54574 3.88077 5.84934 3.63161Q6.15294 3.38245 6.46841 3.14848Q6.78387 2.91452 7.11043 2.69632Q7.43699 2.47812 7.77387 2.2762Q8.11075 2.07428 8.45712 1.88914Q8.8035 1.704 9.15855 1.53607Q9.51359 1.36815 9.87645 1.21785Q10.2393 1.06755 10.6091 0.935236Q10.9789 0.802922 11.3547 0.688911Q11.7306 0.574901 12.1116 0.47947Q12.4925 0.384039 12.8777 0.307416Q13.263 0.230794 13.6515 0.173165Q14.04 0.115536 14.4308 0.0770395Q14.8217 0.038543 15.214 0.0192715Q15.6062 0 15.999 0Z" id="Area" fill="#F7F4F0" fill-rule="evenodd" stroke="none" />
    <g id="Ic--팔로우" transform="translate(12 9)" filter="url(#filter_1)">
      <g id="settings-round">
        <g id="Group" transform="translate(5.3333335 5.3333335)">
          <path d="M7.56238 19.6873L8.2584 21.177C8.68112 22.0829 9.62504 22.6668 10.6667 22.6667L10.6667 22.6667C11.7083 22.6668 12.6522 22.0829 13.0749 21.177L13.771 19.6873C14.0187 19.1587 14.4355 18.718 14.9619 18.428L14.9619 18.428C15.4916 18.1372 16.1043 18.0134 16.7125 18.0742L18.4155 18.2467C19.4511 18.3509 20.4542 17.8648 20.9746 17.0063L20.9746 17.0063C21.4957 16.1483 21.4366 15.0787 20.8237 14.2775L19.8154 12.959C19.4564 12.4861 19.2646 11.9168 19.2676 11.3333L19.2676 11.3333C19.2675 10.7515 19.4612 10.1845 19.8207 9.71393L20.829 8.39548C21.4419 7.59428 21.501 6.52464 20.9799 5.66667L20.9799 5.66667C20.4594 4.80819 19.4564 4.32204 18.4208 4.4263L16.7178 4.59881C16.1096 4.6596 15.4968 4.53574 14.9671 4.24496L14.9671 4.24496C14.4397 3.95335 14.0228 3.51034 13.7762 2.97941L13.0749 1.4897C12.6522 0.583732 11.7083 -0.000161785 10.6667 3.36256e-08L10.6667 3.36256e-08C9.62504 -0.000161785 8.68112 0.583732 8.2584 1.4897L7.56238 2.97941C7.31578 3.51034 6.8989 3.95335 6.37148 4.24496L6.37148 4.24496C5.84178 4.53574 5.22901 4.6596 4.62085 4.59881L2.91257 4.4263C1.87689 4.32204 0.87389 4.80819 0.35345 5.66667L0.35345 5.66667C-0.167666 6.52464 -0.108537 7.59428 0.504297 8.39548L1.51259 9.71393C1.87218 10.1845 2.06581 10.7515 2.0657 11.3333L2.0657 11.3333C2.06581 11.9152 1.87218 12.4821 1.51259 12.9527L0.504297 14.2712C-0.108537 15.0724 -0.167666 16.142 0.35345 17L0.35345 17C0.874377 17.858 1.87702 18.344 2.91257 18.2404L4.61556 18.0679C5.22372 18.0071 5.83649 18.1309 6.36619 18.4217L6.36619 18.4217C6.89557 18.7125 7.31439 19.1556 7.56238 19.6873L7.56238 19.6873Z" id="Path" fill="none" fill-rule="evenodd" stroke="#000000" stroke-width="2" />
          <path d="M10.6667 14.6666C12.6011 14.6666 14.1692 13.1742 14.1692 11.3333C14.1692 9.49243 12.6011 8.00007 10.6667 8.00007C8.73225 8.00007 7.16409 9.49243 7.16409 11.3333C7.16409 13.1742 8.73225 14.6666 10.6667 14.6666Z" id="Oval" fill="none" fill-rule="evenodd" stroke="#000000" stroke-width="2" stroke-linecap="round" stroke-linejoin="round" />
        </g>
        <path d="M0 0L32 0L32 32L0 32L0 0Z" id="Path" fill="none" fill-rule="evenodd" stroke="none" />
      </g>
    </g>
    <g id="편집하기" fill="#545045" transform="translate(48 14)">
      <path d="M32.672 4.872L32.672 2.696L34.512 2.696L34.512 4.872L38.048 4.872L38.048 6.392L29.104 6.392L29.104 4.872L32.672 4.872ZM8.944 7.992L8.944 9.352L11.056 9.352L11.056 13.496L12.896 13.496L12.896 2.968L11.056 2.968L11.056 5.48L8.944 5.48L8.944 6.84L11.056 6.84L11.056 7.992L8.944 7.992ZM25.296 10.424L27.136 10.424L27.136 2.968L25.296 2.968L25.296 10.424ZM43.12 10.2L40.88 10.2L40.88 17.592L39.04 17.592L39.04 2.968L40.88 2.968L40.88 8.632L43.12 8.632L43.12 10.2ZM53.936 17.592L55.776 17.592L55.776 2.968L53.936 2.968L53.936 17.592ZM22.272 9.744Q22.784 10.024 23.168 10.184L24.08 8.936Q23.52 8.664 22.896 8.288Q22.272 7.912 21.744 7.424Q21.216 6.936 20.872 6.32Q20.528 5.704 20.528 4.968L20.528 4.936L23.456 4.936L23.456 3.384L15.696 3.384L15.696 4.936L18.688 4.936L18.688 4.984Q18.688 5.72 18.368 6.352Q18.048 6.984 17.52 7.52Q16.992 8.056 16.304 8.512Q15.616 8.968 14.896 9.352L16.032 10.552Q16.48 10.312 17.008 9.96Q17.536 9.608 18.032 9.216Q18.528 8.824 18.952 8.4Q19.376 7.976 19.632 7.592Q19.872 7.96 20.312 8.352Q20.752 8.744 21.256 9.104Q21.76 9.464 22.272 9.744ZM0.816 3.544L0.816 5L9.168 5L9.168 3.544L0.816 3.544ZM50.672 8.608Q51.248 7.368 51.248 5.88L51.248 4.344Q51.248 3.8 50.704 3.8L44.272 3.8L44.272 5.384L49.408 5.384L49.408 6.04Q49.408 7.192 48.984 8.16Q48.56 9.128 47.808 9.928Q47.056 10.728 46.04 11.4Q45.024 12.072 43.84 12.648L44.656 13.944Q45.872 13.4 47.048 12.624Q48.224 11.848 49.16 10.848Q50.096 9.848 50.672 8.608ZM8.712 11.272Q9.488 11.16 9.872 11.064L9.776 9.784Q9.2 9.864 8.616 9.912Q8.032 9.96 7.424 9.992Q7.6 9.576 7.704 9.048Q7.808 8.52 7.808 7.848L7.808 6.008L6.032 6.008L6.032 7.96Q6.032 8.632 5.936 9.136Q5.84 9.64 5.712 10.056Q5.264 10.072 4.792 10.08Q4.32 10.088 3.84 10.088L3.84 6.008L2.064 6.008L2.064 10.12L0.528 10.12L0.528 11.576Q1.312 11.576 2.224 11.568Q3.136 11.56 4.016 11.552Q4.896 11.544 5.688 11.52Q6.48 11.496 7.056 11.448Q7.936 11.384 8.712 11.272ZM33.536 14.328Q32.768 14.328 32.064 14.104Q31.36 13.88 30.832 13.44Q30.304 13 29.992 12.328Q29.68 11.656 29.68 10.76Q29.68 9.864 29.992 9.192Q30.304 8.52 30.832 8.08Q31.36 7.64 32.064 7.416Q32.768 7.192 33.536 7.192Q34.304 7.192 35.008 7.416Q35.712 7.64 36.24 8.08Q36.768 8.52 37.08 9.192Q37.392 9.864 37.392 10.76Q37.392 11.656 37.08 12.328Q36.768 13 36.24 13.44Q35.712 13.88 35.008 14.104Q34.304 14.328 33.536 14.328ZM33.536 8.712Q32.672 8.712 32.08 9.228Q31.488 9.744 31.488 10.76Q31.488 11.776 32.08 12.292Q32.672 12.808 33.536 12.808Q34.4 12.808 34.992 12.292Q35.584 11.776 35.584 10.76Q35.584 9.744 34.992 9.228Q34.4 8.712 33.536 8.712ZM27.136 17.368L27.136 11.416L25.328 11.416L25.328 13.144L19.328 13.144L19.328 11.416L17.52 11.416L17.52 16.136Q17.52 17.752 19.136 17.752L26.752 17.752Q27.136 17.752 27.136 17.368ZM4.96 17.576L13.296 17.576L13.296 15.992L5.552 15.992Q5.184 15.992 5.184 15.624L5.184 12.952L3.344 12.952L3.344 15.96Q3.344 16.768 3.748 17.172Q4.152 17.576 4.96 17.576ZM25.328 14.616L25.328 16.2L19.696 16.2Q19.328 16.2 19.328 15.832L19.328 14.616L25.328 14.616Z" />
    </g>
  </g>
</svg>